<?xml version="1.0" encoding="UTF-8" ?>
<svg version="1.1" width="80" height="32" xmlns="http://www.w3.org/2000/svg" shape-rendering="crispEdges">
<rect x="2" y="1" width="1" height="1" fill="#FF0000" />
<rect x="3" y="1" width="1" height="1" fill="#FF0000" />
<rect x="4" y="1" width="1" height="1" fill="#FF0000" />
<rect x="11" y="1" width="1" height="1" fill="#FF0000" />
<rect x="12" y="1" width="1" height="1" fill="#FF0000" />
<rect x="13" y="1" width="1" height="1" fill="#FF0000" />
<rect x="18" y="1" width="1" height="1" fill="#FF0000" />
<rect x="19" y="1" width="1" height="1" fill="#FF0000" />
<rect x="20" y="1" width="1" height="1" fill="#FF0000" />
<rect x="27" y="1" width="1" height="1" fill="#FF0000" />
<rect x="28" y="1" width="1" height="1" fill="#FF0000" />
<rect x="29" y="1" width="1" height="1" fill="#FF0000" />
<rect x="50" y="1" width="1" height="1" fill="#FF0000" />
<rect x="51" y="1" width="1" height="1" fill="#FF0000" />
<rect x="52" y="1" width="1" height="1" fill="#FF0000" />
<rect x="59" y="1" width="1" height="1" fill="#FF0000" />
<rect x="60" y="1" width="1" height="1" fill="#FF0000" />
<rect x="61" y="1" width="1" height="1" fill="#FF0000" />
<rect x="2" y="2" width="1" height="1" fill="#FF0000" />
<rect x="3" y="2" width="1" height="1" fill="#FF0000" />
<rect x="4" y="2" width="1" height="1" fill="#FF0000" />
<rect x="11" y="2" width="1" height="1" fill="#FF0000" />
<rect x="12" y="2" width="1" height="1" fill="#FF0000" />
<rect x="13" y="2" width="1" height="1" fill="#FF0000" />
<rect x="18" y="2" width="1" height="1" fill="#FF0000" />
<rect x="19" y="2" width="1" height="1" fill="#FF0000" />
<rect x="20" y="2" width="1" height="1" fill="#FF0000" />
<rect x="27" y="2" width="1" height="1" fill="#FF0000" />
<rect x="28" y="2" width="1" height="1" fill="#FF0000" />
<rect x="29" y="2" width="1" height="1" fill="#FF0000" />
<rect x="50" y="2" width="1" height="1" fill="#FF0000" />
<rect x="51" y="2" width="1" height="1" fill="#FF0000" />
<rect x="52" y="2" width="1" height="1" fill="#FF0000" />
<rect x="59" y="2" width="1" height="1" fill="#FF0000" />
<rect x="60" y="2" width="1" height="1" fill="#FF0000" />
<rect x="61" y="2" width="1" height="1" fill="#FF0000" />
<rect x="2" y="3" width="1" height="1" fill="#FF0000" />
<rect x="3" y="3" width="1" height="1" fill="#FF0000" />
<rect x="4" y="3" width="1" height="1" fill="#FF0000" />
<rect x="11" y="3" width="1" height="1" fill="#FF0000" />
<rect x="12" y="3" width="1" height="1" fill="#FF0000" />
<rect x="13" y="3" width="1" height="1" fill="#FF0000" />
<rect x="18" y="3" width="1" height="1" fill="#FF0000" />
<rect x="19" y="3" width="1" height="1" fill="#FF0000" />
<rect x="20" y="3" width="1" height="1" fill="#FF0000" />
<rect x="27" y="3" width="1" height="1" fill="#FF0000" />
<rect x="28" y="3" width="1" height="1" fill="#FF0000" />
<rect x="29" y="3" width="1" height="1" fill="#FF0000" />
<rect x="50" y="3" width="1" height="1" fill="#FF0000" />
<rect x="51" y="3" width="1" height="1" fill="#FF0000" />
<rect x="52" y="3" width="1" height="1" fill="#FF0000" />
<rect x="59" y="3" width="1" height="1" fill="#FF0000" />
<rect x="60" y="3" width="1" height="1" fill="#FF0000" />
<rect x="61" y="3" width="1" height="1" fill="#FF0000" />
<rect x="4" y="4" width="1" height="1" fill="#FF0000" />
<rect x="5" y="4" width="1" height="1" fill="#FF0000" />
<rect x="10" y="4" width="1" height="1" fill="#FF0000" />
<rect x="11" y="4" width="1" height="1" fill="#FF0000" />
<rect x="20" y="4" width="1" height="1" fill="#FF0000" />
<rect x="21" y="4" width="1" height="1" fill="#FF0000" />
<rect x="22" y="4" width="1" height="1" fill="#FFFF00" />
<rect x="23" y="4" width="1" height="1" fill="#FFFF00" />
<rect x="24" y="4" width="1" height="1" fill="#FFFF00" />
<rect x="25" y="4" width="1" height="1" fill="#FFFF00" />
<rect x="26" y="4" width="1" height="1" fill="#FF0000" />
<rect x="27" y="4" width="1" height="1" fill="#FF0000" />
<rect x="52" y="4" width="1" height="1" fill="#FF0000" />
<rect x="53" y="4" width="1" height="1" fill="#FF0000" />
<rect x="58" y="4" width="1" height="1" fill="#FF0000" />
<rect x="59" y="4" width="1" height="1" fill="#FF0000" />
<rect x="70" y="4" width="1" height="1" fill="#FFFF00" />
<rect x="71" y="4" width="1" height="1" fill="#FFFF00" />
<rect x="72" y="4" width="1" height="1" fill="#FFFF00" />
<rect x="73" y="4" width="1" height="1" fill="#FFFF00" />
<rect x="4" y="5" width="1" height="1" fill="#FF0000" />
<rect x="5" y="5" width="1" height="1" fill="#FF0000" />
<rect x="6" y="5" width="1" height="1" fill="#FF0000" />
<rect x="9" y="5" width="1" height="1" fill="#FF0000" />
<rect x="10" y="5" width="1" height="1" fill="#FF0000" />
<rect x="11" y="5" width="1" height="1" fill="#FF0000" />
<rect x="20" y="5" width="1" height="1" fill="#FF0000" />
<rect x="21" y="5" width="1" height="1" fill="#FFFF00" />
<rect x="22" y="5" width="1" height="1" fill="#FF0000" />
<rect x="25" y="5" width="1" height="1" fill="#FF0000" />
<rect x="26" y="5" width="1" height="1" fill="#FFFF00" />
<rect x="27" y="5" width="1" height="1" fill="#FF0000" />
<rect x="52" y="5" width="1" height="1" fill="#FF0000" />
<rect x="53" y="5" width="1" height="1" fill="#FF0000" />
<rect x="54" y="5" width="1" height="1" fill="#FF0000" />
<rect x="57" y="5" width="1" height="1" fill="#FF0000" />
<rect x="58" y="5" width="1" height="1" fill="#FF0000" />
<rect x="59" y="5" width="1" height="1" fill="#FF0000" />
<rect x="69" y="5" width="1" height="1" fill="#FFFF00" />
<rect x="74" y="5" width="1" height="1" fill="#FFFF00" />
<rect x="5" y="6" width="1" height="1" fill="#FF0000" />
<rect x="6" y="6" width="1" height="1" fill="#FF0000" />
<rect x="9" y="6" width="1" height="1" fill="#FF0000" />
<rect x="10" y="6" width="1" height="1" fill="#FF0000" />
<rect x="20" y="6" width="1" height="1" fill="#FFFF00" />
<rect x="21" y="6" width="1" height="1" fill="#FF0000" />
<rect x="22" y="6" width="1" height="1" fill="#FF0000" />
<rect x="25" y="6" width="1" height="1" fill="#FF0000" />
<rect x="26" y="6" width="1" height="1" fill="#FF0000" />
<rect x="27" y="6" width="1" height="1" fill="#FFFF00" />
<rect x="53" y="6" width="1" height="1" fill="#FF0000" />
<rect x="54" y="6" width="1" height="1" fill="#FF0000" />
<rect x="57" y="6" width="1" height="1" fill="#FF0000" />
<rect x="58" y="6" width="1" height="1" fill="#FF0000" />
<rect x="68" y="6" width="1" height="1" fill="#FFFF00" />
<rect x="75" y="6" width="1" height="1" fill="#FFFF00" />
<rect x="6" y="7" width="1" height="1" fill="#FF0000" />
<rect x="7" y="7" width="1" height="1" fill="#FF0000" />
<rect x="8" y="7" width="1" height="1" fill="#FF0000" />
<rect x="9" y="7" width="1" height="1" fill="#FF0000" />
<rect x="20" y="7" width="1" height="1" fill="#FFFF00" />
<rect x="22" y="7" width="1" height="1" fill="#FF0000" />
<rect x="23" y="7" width="1" height="1" fill="#DEDEFF" />
<rect x="24" y="7" width="1" height="1" fill="#DEDEFF" />
<rect x="25" y="7" width="1" height="1" fill="#FF0000" />
<rect x="27" y="7" width="1" height="1" fill="#FFFF00" />
<rect x="54" y="7" width="1" height="1" fill="#FF0000" />
<rect x="55" y="7" width="1" height="1" fill="#FF0000" />
<rect x="56" y="7" width="1" height="1" fill="#FF0000" />
<rect x="57" y="7" width="1" height="1" fill="#FF0000" />
<rect x="67" y="7" width="1" height="1" fill="#8000FF" />
<rect x="68" y="7" width="1" height="1" fill="#FFFF00" />
<rect x="69" y="7" width="1" height="1" fill="#FFFF00" />
<rect x="70" y="7" width="1" height="1" fill="#FFFF00" />
<rect x="71" y="7" width="1" height="1" fill="#FFFF00" />
<rect x="72" y="7" width="1" height="1" fill="#FFFF00" />
<rect x="73" y="7" width="1" height="1" fill="#FFFF00" />
<rect x="74" y="7" width="1" height="1" fill="#FFFF00" />
<rect x="75" y="7" width="1" height="1" fill="#FFFF00" />
<rect x="6" y="8" width="1" height="1" fill="#FF0000" />
<rect x="7" y="8" width="1" height="1" fill="#FF0000" />
<rect x="8" y="8" width="1" height="1" fill="#FF0000" />
<rect x="9" y="8" width="1" height="1" fill="#FF0000" />
<rect x="20" y="8" width="1" height="1" fill="#FFFF00" />
<rect x="22" y="8" width="1" height="1" fill="#FF0000" />
<rect x="23" y="8" width="1" height="1" fill="#DEDEFF" />
<rect x="24" y="8" width="1" height="1" fill="#DEDEFF" />
<rect x="25" y="8" width="1" height="1" fill="#FF0000" />
<rect x="27" y="8" width="1" height="1" fill="#FFFF00" />
<rect x="54" y="8" width="1" height="1" fill="#FF0000" />
<rect x="55" y="8" width="1" height="1" fill="#FF0000" />
<rect x="56" y="8" width="1" height="1" fill="#FF0000" />
<rect x="57" y="8" width="1" height="1" fill="#FF0000" />
<rect x="66" y="8" width="1" height="1" fill="#8000FF" />
<rect x="67" y="8" width="1" height="1" fill="#8000FF" />
<rect x="68" y="8" width="1" height="1" fill="#FFFF00" />
<rect x="69" y="8" width="1" height="1" fill="#00FF00" />
<rect x="70" y="8" width="1" height="1" fill="#00FF00" />
<rect x="71" y="8" width="1" height="1" fill="#DEDEFF" />
<rect x="72" y="8" width="1" height="1" fill="#DEDEFF" />
<rect x="73" y="8" width="1" height="1" fill="#00FF00" />
<rect x="74" y="8" width="1" height="1" fill="#00FF00" />
<rect x="75" y="8" width="1" height="1" fill="#FFFF00" />
<rect x="76" y="8" width="1" height="1" fill="#8000FF" />
<rect x="5" y="9" width="1" height="1" fill="#FF0000" />
<rect x="6" y="9" width="1" height="1" fill="#FF0000" />
<rect x="9" y="9" width="1" height="1" fill="#FF0000" />
<rect x="10" y="9" width="1" height="1" fill="#FF0000" />
<rect x="20" y="9" width="1" height="1" fill="#FFFF00" />
<rect x="21" y="9" width="1" height="1" fill="#FF0000" />
<rect x="22" y="9" width="1" height="1" fill="#FF0000" />
<rect x="25" y="9" width="1" height="1" fill="#FF0000" />
<rect x="26" y="9" width="1" height="1" fill="#FF0000" />
<rect x="27" y="9" width="1" height="1" fill="#FFFF00" />
<rect x="53" y="9" width="1" height="1" fill="#FF0000" />
<rect x="54" y="9" width="1" height="1" fill="#FF0000" />
<rect x="57" y="9" width="1" height="1" fill="#FF0000" />
<rect x="58" y="9" width="1" height="1" fill="#FF0000" />
<rect x="66" y="9" width="1" height="1" fill="#8000FF" />
<rect x="67" y="9" width="1" height="1" fill="#FFFF00" />
<rect x="68" y="9" width="1" height="1" fill="#FFFF00" />
<rect x="69" y="9" width="1" height="1" fill="#00FF00" />
<rect x="70" y="9" width="1" height="1" fill="#00FF00" />
<rect x="71" y="9" width="1" height="1" fill="#00FF00" />
<rect x="72" y="9" width="1" height="1" fill="#00FF00" />
<rect x="73" y="9" width="1" height="1" fill="#00FF00" />
<rect x="74" y="9" width="1" height="1" fill="#00FF00" />
<rect x="75" y="9" width="1" height="1" fill="#FFFF00" />
<rect x="76" y="9" width="1" height="1" fill="#FFFF00" />
<rect x="4" y="10" width="1" height="1" fill="#FF0000" />
<rect x="5" y="10" width="1" height="1" fill="#FF0000" />
<rect x="6" y="10" width="1" height="1" fill="#FF0000" />
<rect x="9" y="10" width="1" height="1" fill="#FF0000" />
<rect x="10" y="10" width="1" height="1" fill="#FF0000" />
<rect x="11" y="10" width="1" height="1" fill="#FF0000" />
<rect x="20" y="10" width="1" height="1" fill="#FF0000" />
<rect x="21" y="10" width="1" height="1" fill="#FFFF00" />
<rect x="22" y="10" width="1" height="1" fill="#FF0000" />
<rect x="25" y="10" width="1" height="1" fill="#FF0000" />
<rect x="26" y="10" width="1" height="1" fill="#FFFF00" />
<rect x="27" y="10" width="1" height="1" fill="#FF0000" />
<rect x="52" y="10" width="1" height="1" fill="#FF0000" />
<rect x="53" y="10" width="1" height="1" fill="#FF0000" />
<rect x="54" y="10" width="1" height="1" fill="#FF0000" />
<rect x="57" y="10" width="1" height="1" fill="#FF0000" />
<rect x="58" y="10" width="1" height="1" fill="#FF0000" />
<rect x="59" y="10" width="1" height="1" fill="#FF0000" />
<rect x="65" y="10" width="1" height="1" fill="#8000FF" />
<rect x="66" y="10" width="1" height="1" fill="#8000FF" />
<rect x="67" y="10" width="1" height="1" fill="#FFFF00" />
<rect x="68" y="10" width="1" height="1" fill="#8000FF" />
<rect x="69" y="10" width="1" height="1" fill="#FFFF00" />
<rect x="70" y="10" width="1" height="1" fill="#00FF00" />
<rect x="71" y="10" width="1" height="1" fill="#00FF00" />
<rect x="72" y="10" width="1" height="1" fill="#00FF00" />
<rect x="73" y="10" width="1" height="1" fill="#00FF00" />
<rect x="74" y="10" width="1" height="1" fill="#FFFF00" />
<rect x="75" y="10" width="1" height="1" fill="#8000FF" />
<rect x="76" y="10" width="1" height="1" fill="#FFFF00" />
<rect x="77" y="10" width="1" height="1" fill="#8000FF" />
<rect x="4" y="11" width="1" height="1" fill="#FF0000" />
<rect x="5" y="11" width="1" height="1" fill="#FF0000" />
<rect x="10" y="11" width="1" height="1" fill="#FF0000" />
<rect x="11" y="11" width="1" height="1" fill="#FF0000" />
<rect x="20" y="11" width="1" height="1" fill="#FF0000" />
<rect x="21" y="11" width="1" height="1" fill="#FF0000" />
<rect x="22" y="11" width="1" height="1" fill="#FFFF00" />
<rect x="23" y="11" width="1" height="1" fill="#FFFF00" />
<rect x="24" y="11" width="1" height="1" fill="#FFFF00" />
<rect x="25" y="11" width="1" height="1" fill="#FFFF00" />
<rect x="26" y="11" width="1" height="1" fill="#FF0000" />
<rect x="27" y="11" width="1" height="1" fill="#FF0000" />
<rect x="52" y="11" width="1" height="1" fill="#FF0000" />
<rect x="53" y="11" width="1" height="1" fill="#FF0000" />
<rect x="58" y="11" width="1" height="1" fill="#FF0000" />
<rect x="59" y="11" width="1" height="1" fill="#FF0000" />
<rect x="65" y="11" width="1" height="1" fill="#8000FF" />
<rect x="66" y="11" width="1" height="1" fill="#8000FF" />
<rect x="67" y="11" width="1" height="1" fill="#FFFF00" />
<rect x="68" y="11" width="1" height="1" fill="#8000FF" />
<rect x="69" y="11" width="1" height="1" fill="#8000FF" />
<rect x="70" y="11" width="1" height="1" fill="#FFFF00" />
<rect x="71" y="11" width="1" height="1" fill="#FFFF00" />
<rect x="72" y="11" width="1" height="1" fill="#FFFF00" />
<rect x="73" y="11" width="1" height="1" fill="#FFFF00" />
<rect x="74" y="11" width="1" height="1" fill="#8000FF" />
<rect x="75" y="11" width="1" height="1" fill="#8000FF" />
<rect x="76" y="11" width="1" height="1" fill="#FFFF00" />
<rect x="77" y="11" width="1" height="1" fill="#8000FF" />
<rect x="2" y="12" width="1" height="1" fill="#FF0000" />
<rect x="3" y="12" width="1" height="1" fill="#FF0000" />
<rect x="4" y="12" width="1" height="1" fill="#FF0000" />
<rect x="11" y="12" width="1" height="1" fill="#FF0000" />
<rect x="12" y="12" width="1" height="1" fill="#FF0000" />
<rect x="13" y="12" width="1" height="1" fill="#FF0000" />
<rect x="18" y="12" width="1" height="1" fill="#FF0000" />
<rect x="19" y="12" width="1" height="1" fill="#FF0000" />
<rect x="20" y="12" width="1" height="1" fill="#FF0000" />
<rect x="27" y="12" width="1" height="1" fill="#FF0000" />
<rect x="28" y="12" width="1" height="1" fill="#FF0000" />
<rect x="29" y="12" width="1" height="1" fill="#FF0000" />
<rect x="50" y="12" width="1" height="1" fill="#FF0000" />
<rect x="51" y="12" width="1" height="1" fill="#FF0000" />
<rect x="52" y="12" width="1" height="1" fill="#FF0000" />
<rect x="59" y="12" width="1" height="1" fill="#FF0000" />
<rect x="60" y="12" width="1" height="1" fill="#FF0000" />
<rect x="61" y="12" width="1" height="1" fill="#FF0000" />
<rect x="65" y="12" width="1" height="1" fill="#8000FF" />
<rect x="66" y="12" width="1" height="1" fill="#8000FF" />
<rect x="67" y="12" width="1" height="1" fill="#FFFF00" />
<rect x="68" y="12" width="1" height="1" fill="#8000FF" />
<rect x="69" y="12" width="1" height="1" fill="#8000FF" />
<rect x="70" y="12" width="1" height="1" fill="#8000FF" />
<rect x="72" y="12" width="1" height="1" fill="#8000FF" />
<rect x="73" y="12" width="1" height="1" fill="#8000FF" />
<rect x="74" y="12" width="1" height="1" fill="#8000FF" />
<rect x="75" y="12" width="1" height="1" fill="#8000FF" />
<rect x="76" y="12" width="1" height="1" fill="#FFFF00" />
<rect x="77" y="12" width="1" height="1" fill="#8000FF" />
<rect x="2" y="13" width="1" height="1" fill="#FF0000" />
<rect x="3" y="13" width="1" height="1" fill="#FF0000" />
<rect x="4" y="13" width="1" height="1" fill="#FF0000" />
<rect x="11" y="13" width="1" height="1" fill="#FF0000" />
<rect x="12" y="13" width="1" height="1" fill="#FF0000" />
<rect x="13" y="13" width="1" height="1" fill="#FF0000" />
<rect x="18" y="13" width="1" height="1" fill="#FF0000" />
<rect x="19" y="13" width="1" height="1" fill="#FF0000" />
<rect x="20" y="13" width="1" height="1" fill="#FF0000" />
<rect x="27" y="13" width="1" height="1" fill="#FF0000" />
<rect x="28" y="13" width="1" height="1" fill="#FF0000" />
<rect x="29" y="13" width="1" height="1" fill="#FF0000" />
<rect x="50" y="13" width="1" height="1" fill="#FF0000" />
<rect x="51" y="13" width="1" height="1" fill="#FF0000" />
<rect x="52" y="13" width="1" height="1" fill="#FF0000" />
<rect x="59" y="13" width="1" height="1" fill="#FF0000" />
<rect x="60" y="13" width="1" height="1" fill="#FF0000" />
<rect x="61" y="13" width="1" height="1" fill="#FF0000" />
<rect x="65" y="13" width="1" height="1" fill="#8000FF" />
<rect x="66" y="13" width="1" height="1" fill="#8000FF" />
<rect x="67" y="13" width="1" height="1" fill="#FFFF00" />
<rect x="68" y="13" width="1" height="1" fill="#8000FF" />
<rect x="69" y="13" width="1" height="1" fill="#8000FF" />
<rect x="70" y="13" width="1" height="1" fill="#8000FF" />
<rect x="72" y="13" width="1" height="1" fill="#8000FF" />
<rect x="73" y="13" width="1" height="1" fill="#8000FF" />
<rect x="74" y="13" width="1" height="1" fill="#8000FF" />
<rect x="75" y="13" width="1" height="1" fill="#8000FF" />
<rect x="76" y="13" width="1" height="1" fill="#FFFF00" />
<rect x="77" y="13" width="1" height="1" fill="#8000FF" />
<rect x="2" y="14" width="1" height="1" fill="#FF0000" />
<rect x="3" y="14" width="1" height="1" fill="#FF0000" />
<rect x="4" y="14" width="1" height="1" fill="#FF0000" />
<rect x="11" y="14" width="1" height="1" fill="#FF0000" />
<rect x="12" y="14" width="1" height="1" fill="#FF0000" />
<rect x="13" y="14" width="1" height="1" fill="#FF0000" />
<rect x="18" y="14" width="1" height="1" fill="#FF0000" />
<rect x="19" y="14" width="1" height="1" fill="#FF0000" />
<rect x="20" y="14" width="1" height="1" fill="#FF0000" />
<rect x="27" y="14" width="1" height="1" fill="#FF0000" />
<rect x="28" y="14" width="1" height="1" fill="#FF0000" />
<rect x="29" y="14" width="1" height="1" fill="#FF0000" />
<rect x="50" y="14" width="1" height="1" fill="#FF0000" />
<rect x="51" y="14" width="1" height="1" fill="#FF0000" />
<rect x="52" y="14" width="1" height="1" fill="#FF0000" />
<rect x="59" y="14" width="1" height="1" fill="#FF0000" />
<rect x="60" y="14" width="1" height="1" fill="#FF0000" />
<rect x="61" y="14" width="1" height="1" fill="#FF0000" />
<rect x="65" y="14" width="1" height="1" fill="#8000FF" />
<rect x="66" y="14" width="1" height="1" fill="#8000FF" />
<rect x="67" y="14" width="1" height="1" fill="#FFFF00" />
<rect x="68" y="14" width="1" height="1" fill="#8000FF" />
<rect x="69" y="14" width="1" height="1" fill="#8000FF" />
<rect x="70" y="14" width="1" height="1" fill="#8000FF" />
<rect x="72" y="14" width="1" height="1" fill="#8000FF" />
<rect x="73" y="14" width="1" height="1" fill="#8000FF" />
<rect x="74" y="14" width="1" height="1" fill="#8000FF" />
<rect x="75" y="14" width="1" height="1" fill="#8000FF" />
<rect x="76" y="14" width="1" height="1" fill="#FFFF00" />
<rect x="77" y="14" width="1" height="1" fill="#8000FF" />
<rect x="66" y="15" width="1" height="1" fill="#8000FF" />
<rect x="67" y="15" width="1" height="1" fill="#8000FF" />
<rect x="68" y="15" width="1" height="1" fill="#FFFF00" />
<rect x="69" y="15" width="1" height="1" fill="#8000FF" />
<rect x="70" y="15" width="1" height="1" fill="#8000FF" />
<rect x="71" y="15" width="1" height="1" fill="#8000FF" />
<rect x="72" y="15" width="1" height="1" fill="#8000FF" />
<rect x="73" y="15" width="1" height="1" fill="#8000FF" />
<rect x="74" y="15" width="1" height="1" fill="#8000FF" />
<rect x="75" y="15" width="1" height="1" fill="#FFFF00" />
<rect x="76" y="15" width="1" height="1" fill="#8000FF" />
<rect x="12" y="16" width="1" height="1" fill="#8000FF" />
<rect x="13" y="16" width="1" height="1" fill="#8000FF" />
<rect x="14" y="16" width="1" height="1" fill="#FFFF00" />
<rect x="15" y="16" width="1" height="1" fill="#FFFF00" />
<rect x="16" y="16" width="1" height="1" fill="#FFFF00" />
<rect x="17" y="16" width="1" height="1" fill="#FFFF00" />
<rect x="18" y="16" width="1" height="1" fill="#FFFF00" />
<rect x="19" y="16" width="1" height="1" fill="#FFFF00" />
<rect x="20" y="16" width="1" height="1" fill="#8000FF" />
<rect x="66" y="16" width="1" height="1" fill="#8000FF" />
<rect x="67" y="16" width="1" height="1" fill="#8000FF" />
<rect x="68" y="16" width="1" height="1" fill="#8000FF" />
<rect x="69" y="16" width="1" height="1" fill="#FFFF00" />
<rect x="70" y="16" width="1" height="1" fill="#FFFF00" />
<rect x="71" y="16" width="1" height="1" fill="#FFFF00" />
<rect x="72" y="16" width="1" height="1" fill="#FFFF00" />
<rect x="73" y="16" width="1" height="1" fill="#FFFF00" />
<rect x="74" y="16" width="1" height="1" fill="#FFFF00" />
<rect x="75" y="16" width="1" height="1" fill="#8000FF" />
<rect x="76" y="16" width="1" height="1" fill="#8000FF" />
<rect x="2" y="17" width="1" height="1" fill="#FF0000" />
<rect x="3" y="17" width="1" height="1" fill="#FF0000" />
<rect x="4" y="17" width="1" height="1" fill="#FF0000" />
<rect x="11" y="17" width="1" height="1" fill="#8000FF" />
<rect x="12" y="17" width="1" height="1" fill="#8000FF" />
<rect x="13" y="17" width="1" height="1" fill="#FFFF00" />
<rect x="18" y="17" width="1" height="1" fill="#FF0000" />
<rect x="19" y="17" width="1" height="1" fill="#8000FF" />
<rect x="20" y="17" width="1" height="1" fill="#FFFF00" />
<rect x="21" y="17" width="1" height="1" fill="#8000FF" />
<rect x="27" y="17" width="1" height="1" fill="#FF0000" />
<rect x="28" y="17" width="1" height="1" fill="#FF0000" />
<rect x="29" y="17" width="1" height="1" fill="#FF0000" />
<rect x="50" y="17" width="1" height="1" fill="#FF0000" />
<rect x="51" y="17" width="1" height="1" fill="#FF0000" />
<rect x="52" y="17" width="1" height="1" fill="#FF0000" />
<rect x="59" y="17" width="1" height="1" fill="#FF0000" />
<rect x="60" y="17" width="1" height="1" fill="#FF0000" />
<rect x="61" y="17" width="1" height="1" fill="#FF0000" />
<rect x="66" y="17" width="1" height="1" fill="#FF0000" />
<rect x="67" y="17" width="1" height="1" fill="#8000FF" />
<rect x="68" y="17" width="1" height="1" fill="#8000FF" />
<rect x="69" y="17" width="1" height="1" fill="#8000FF" />
<rect x="70" y="17" width="1" height="1" fill="#8000FF" />
<rect x="71" y="17" width="1" height="1" fill="#8000FF" />
<rect x="72" y="17" width="1" height="1" fill="#8000FF" />
<rect x="73" y="17" width="1" height="1" fill="#8000FF" />
<rect x="74" y="17" width="1" height="1" fill="#8000FF" />
<rect x="75" y="17" width="1" height="1" fill="#8000FF" />
<rect x="76" y="17" width="1" height="1" fill="#FF0000" />
<rect x="77" y="17" width="1" height="1" fill="#FF0000" />
<rect x="2" y="18" width="1" height="1" fill="#FF0000" />
<rect x="3" y="18" width="1" height="1" fill="#FF0000" />
<rect x="4" y="18" width="1" height="1" fill="#FF0000" />
<rect x="11" y="18" width="1" height="1" fill="#8000FF" />
<rect x="12" y="18" width="1" height="1" fill="#FFFF00" />
<rect x="13" y="18" width="1" height="1" fill="#8000FF" />
<rect x="14" y="18" width="1" height="1" fill="#8000FF" />
<rect x="18" y="18" width="1" height="1" fill="#8000FF" />
<rect x="19" y="18" width="1" height="1" fill="#8000FF" />
<rect x="20" y="18" width="1" height="1" fill="#8000FF" />
<rect x="21" y="18" width="1" height="1" fill="#FFFF00" />
<rect x="27" y="18" width="1" height="1" fill="#FF0000" />
<rect x="28" y="18" width="1" height="1" fill="#FF0000" />
<rect x="29" y="18" width="1" height="1" fill="#FF0000" />
<rect x="50" y="18" width="1" height="1" fill="#FF0000" />
<rect x="51" y="18" width="1" height="1" fill="#FF0000" />
<rect x="52" y="18" width="1" height="1" fill="#FF0000" />
<rect x="59" y="18" width="1" height="1" fill="#FF0000" />
<rect x="60" y="18" width="1" height="1" fill="#FF0000" />
<rect x="61" y="18" width="1" height="1" fill="#FF0000" />
<rect x="66" y="18" width="1" height="1" fill="#FF0000" />
<rect x="67" y="18" width="1" height="1" fill="#FF0000" />
<rect x="68" y="18" width="1" height="1" fill="#FF0000" />
<rect x="69" y="18" width="1" height="1" fill="#8000FF" />
<rect x="70" y="18" width="1" height="1" fill="#8000FF" />
<rect x="71" y="18" width="1" height="1" fill="#8000FF" />
<rect x="72" y="18" width="1" height="1" fill="#8000FF" />
<rect x="73" y="18" width="1" height="1" fill="#8000FF" />
<rect x="75" y="18" width="1" height="1" fill="#FF0000" />
<rect x="76" y="18" width="1" height="1" fill="#FF0000" />
<rect x="77" y="18" width="1" height="1" fill="#FF0000" />
<rect x="2" y="19" width="1" height="1" fill="#FF0000" />
<rect x="3" y="19" width="1" height="1" fill="#FF0000" />
<rect x="4" y="19" width="1" height="1" fill="#FF0000" />
<rect x="10" y="19" width="1" height="1" fill="#8000FF" />
<rect x="11" y="19" width="1" height="1" fill="#8000FF" />
<rect x="12" y="19" width="1" height="1" fill="#FFFF00" />
<rect x="13" y="19" width="1" height="1" fill="#8000FF" />
<rect x="14" y="19" width="1" height="1" fill="#8000FF" />
<rect x="18" y="19" width="1" height="1" fill="#8000FF" />
<rect x="19" y="19" width="1" height="1" fill="#8000FF" />
<rect x="20" y="19" width="1" height="1" fill="#8000FF" />
<rect x="21" y="19" width="1" height="1" fill="#FFFF00" />
<rect x="22" y="19" width="1" height="1" fill="#8000FF" />
<rect x="27" y="19" width="1" height="1" fill="#FF0000" />
<rect x="28" y="19" width="1" height="1" fill="#FF0000" />
<rect x="29" y="19" width="1" height="1" fill="#FF0000" />
<rect x="50" y="19" width="1" height="1" fill="#FF0000" />
<rect x="51" y="19" width="1" height="1" fill="#FF0000" />
<rect x="52" y="19" width="1" height="1" fill="#FF0000" />
<rect x="59" y="19" width="1" height="1" fill="#FF0000" />
<rect x="60" y="19" width="1" height="1" fill="#FF0000" />
<rect x="61" y="19" width="1" height="1" fill="#FF0000" />
<rect x="66" y="19" width="1" height="1" fill="#FF0000" />
<rect x="67" y="19" width="1" height="1" fill="#FF0000" />
<rect x="68" y="19" width="1" height="1" fill="#FF0000" />
<rect x="75" y="19" width="1" height="1" fill="#FF0000" />
<rect x="76" y="19" width="1" height="1" fill="#FF0000" />
<rect x="77" y="19" width="1" height="1" fill="#FF0000" />
<rect x="4" y="20" width="1" height="1" fill="#FF0000" />
<rect x="5" y="20" width="1" height="1" fill="#FF0000" />
<rect x="10" y="20" width="1" height="1" fill="#8000FF" />
<rect x="11" y="20" width="1" height="1" fill="#8000FF" />
<rect x="12" y="20" width="1" height="1" fill="#FFFF00" />
<rect x="13" y="20" width="1" height="1" fill="#8000FF" />
<rect x="14" y="20" width="1" height="1" fill="#8000FF" />
<rect x="18" y="20" width="1" height="1" fill="#8000FF" />
<rect x="19" y="20" width="1" height="1" fill="#8000FF" />
<rect x="20" y="20" width="1" height="1" fill="#8000FF" />
<rect x="21" y="20" width="1" height="1" fill="#FFFF00" />
<rect x="22" y="20" width="1" height="1" fill="#8000FF" />
<rect x="26" y="20" width="1" height="1" fill="#FF0000" />
<rect x="27" y="20" width="1" height="1" fill="#FF0000" />
<rect x="52" y="20" width="1" height="1" fill="#FF0000" />
<rect x="53" y="20" width="1" height="1" fill="#FF0000" />
<rect x="58" y="20" width="1" height="1" fill="#FF0000" />
<rect x="59" y="20" width="1" height="1" fill="#FF0000" />
<rect x="68" y="20" width="1" height="1" fill="#FF0000" />
<rect x="69" y="20" width="1" height="1" fill="#FF0000" />
<rect x="74" y="20" width="1" height="1" fill="#FF0000" />
<rect x="75" y="20" width="1" height="1" fill="#FF0000" />
<rect x="4" y="21" width="1" height="1" fill="#FF0000" />
<rect x="5" y="21" width="1" height="1" fill="#FF0000" />
<rect x="6" y="21" width="1" height="1" fill="#FF0000" />
<rect x="9" y="21" width="1" height="1" fill="#FF0000" />
<rect x="10" y="21" width="1" height="1" fill="#8000FF" />
<rect x="11" y="21" width="1" height="1" fill="#8000FF" />
<rect x="12" y="21" width="1" height="1" fill="#FFFF00" />
<rect x="13" y="21" width="1" height="1" fill="#8000FF" />
<rect x="14" y="21" width="1" height="1" fill="#8000FF" />
<rect x="15" y="21" width="1" height="1" fill="#8000FF" />
<rect x="17" y="21" width="1" height="1" fill="#8000FF" />
<rect x="18" y="21" width="1" height="1" fill="#8000FF" />
<rect x="19" y="21" width="1" height="1" fill="#8000FF" />
<rect x="20" y="21" width="1" height="1" fill="#8000FF" />
<rect x="21" y="21" width="1" height="1" fill="#FFFF00" />
<rect x="22" y="21" width="1" height="1" fill="#8000FF" />
<rect x="25" y="21" width="1" height="1" fill="#FF0000" />
<rect x="26" y="21" width="1" height="1" fill="#FF0000" />
<rect x="27" y="21" width="1" height="1" fill="#FF0000" />
<rect x="52" y="21" width="1" height="1" fill="#FF0000" />
<rect x="53" y="21" width="1" height="1" fill="#FF0000" />
<rect x="54" y="21" width="1" height="1" fill="#FF0000" />
<rect x="57" y="21" width="1" height="1" fill="#FF0000" />
<rect x="58" y="21" width="1" height="1" fill="#FF0000" />
<rect x="59" y="21" width="1" height="1" fill="#FF0000" />
<rect x="68" y="21" width="1" height="1" fill="#FF0000" />
<rect x="69" y="21" width="1" height="1" fill="#FF0000" />
<rect x="70" y="21" width="1" height="1" fill="#FF0000" />
<rect x="73" y="21" width="1" height="1" fill="#FF0000" />
<rect x="74" y="21" width="1" height="1" fill="#FF0000" />
<rect x="75" y="21" width="1" height="1" fill="#FF0000" />
<rect x="5" y="22" width="1" height="1" fill="#FF0000" />
<rect x="6" y="22" width="1" height="1" fill="#FF0000" />
<rect x="9" y="22" width="1" height="1" fill="#FF0000" />
<rect x="10" y="22" width="1" height="1" fill="#8000FF" />
<rect x="11" y="22" width="1" height="1" fill="#8000FF" />
<rect x="12" y="22" width="1" height="1" fill="#FFFF00" />
<rect x="13" y="22" width="1" height="1" fill="#8000FF" />
<rect x="14" y="22" width="1" height="1" fill="#8000FF" />
<rect x="15" y="22" width="1" height="1" fill="#8000FF" />
<rect x="17" y="22" width="1" height="1" fill="#8000FF" />
<rect x="18" y="22" width="1" height="1" fill="#8000FF" />
<rect x="19" y="22" width="1" height="1" fill="#8000FF" />
<rect x="20" y="22" width="1" height="1" fill="#8000FF" />
<rect x="21" y="22" width="1" height="1" fill="#FFFF00" />
<rect x="22" y="22" width="1" height="1" fill="#8000FF" />
<rect x="25" y="22" width="1" height="1" fill="#FF0000" />
<rect x="26" y="22" width="1" height="1" fill="#FF0000" />
<rect x="53" y="22" width="1" height="1" fill="#FF0000" />
<rect x="54" y="22" width="1" height="1" fill="#FF0000" />
<rect x="57" y="22" width="1" height="1" fill="#FF0000" />
<rect x="58" y="22" width="1" height="1" fill="#FF0000" />
<rect x="69" y="22" width="1" height="1" fill="#FF0000" />
<rect x="70" y="22" width="1" height="1" fill="#FF0000" />
<rect x="73" y="22" width="1" height="1" fill="#FF0000" />
<rect x="74" y="22" width="1" height="1" fill="#FF0000" />
<rect x="6" y="23" width="1" height="1" fill="#FF0000" />
<rect x="7" y="23" width="1" height="1" fill="#FF0000" />
<rect x="8" y="23" width="1" height="1" fill="#FF0000" />
<rect x="9" y="23" width="1" height="1" fill="#FF0000" />
<rect x="10" y="23" width="1" height="1" fill="#8000FF" />
<rect x="11" y="23" width="1" height="1" fill="#8000FF" />
<rect x="12" y="23" width="1" height="1" fill="#FFFF00" />
<rect x="13" y="23" width="1" height="1" fill="#8000FF" />
<rect x="14" y="23" width="1" height="1" fill="#8000FF" />
<rect x="15" y="23" width="1" height="1" fill="#8000FF" />
<rect x="17" y="23" width="1" height="1" fill="#8000FF" />
<rect x="18" y="23" width="1" height="1" fill="#8000FF" />
<rect x="19" y="23" width="1" height="1" fill="#8000FF" />
<rect x="20" y="23" width="1" height="1" fill="#8000FF" />
<rect x="21" y="23" width="1" height="1" fill="#FFFF00" />
<rect x="22" y="23" width="1" height="1" fill="#8000FF" />
<rect x="23" y="23" width="1" height="1" fill="#FF0000" />
<rect x="24" y="23" width="1" height="1" fill="#FF0000" />
<rect x="25" y="23" width="1" height="1" fill="#FF0000" />
<rect x="54" y="23" width="1" height="1" fill="#FF0000" />
<rect x="55" y="23" width="1" height="1" fill="#FF0000" />
<rect x="56" y="23" width="1" height="1" fill="#FF0000" />
<rect x="57" y="23" width="1" height="1" fill="#FF0000" />
<rect x="70" y="23" width="1" height="1" fill="#FF0000" />
<rect x="71" y="23" width="1" height="1" fill="#FF0000" />
<rect x="72" y="23" width="1" height="1" fill="#FF0000" />
<rect x="73" y="23" width="1" height="1" fill="#FF0000" />
<rect x="6" y="24" width="1" height="1" fill="#FF0000" />
<rect x="7" y="24" width="1" height="1" fill="#FF0000" />
<rect x="8" y="24" width="1" height="1" fill="#FF0000" />
<rect x="9" y="24" width="1" height="1" fill="#FF0000" />
<rect x="11" y="24" width="1" height="1" fill="#8000FF" />
<rect x="12" y="24" width="1" height="1" fill="#8000FF" />
<rect x="13" y="24" width="1" height="1" fill="#FFFF00" />
<rect x="14" y="24" width="1" height="1" fill="#8000FF" />
<rect x="15" y="24" width="1" height="1" fill="#8000FF" />
<rect x="16" y="24" width="1" height="1" fill="#8000FF" />
<rect x="17" y="24" width="1" height="1" fill="#8000FF" />
<rect x="18" y="24" width="1" height="1" fill="#8000FF" />
<rect x="19" y="24" width="1" height="1" fill="#8000FF" />
<rect x="20" y="24" width="1" height="1" fill="#FFFF00" />
<rect x="21" y="24" width="1" height="1" fill="#8000FF" />
<rect x="22" y="24" width="1" height="1" fill="#FF0000" />
<rect x="23" y="24" width="1" height="1" fill="#FF0000" />
<rect x="24" y="24" width="1" height="1" fill="#FF0000" />
<rect x="25" y="24" width="1" height="1" fill="#FF0000" />
<rect x="54" y="24" width="1" height="1" fill="#FF0000" />
<rect x="55" y="24" width="1" height="1" fill="#FF0000" />
<rect x="56" y="24" width="1" height="1" fill="#FF0000" />
<rect x="57" y="24" width="1" height="1" fill="#FF0000" />
<rect x="70" y="24" width="1" height="1" fill="#FF0000" />
<rect x="71" y="24" width="1" height="1" fill="#FF0000" />
<rect x="72" y="24" width="1" height="1" fill="#FF0000" />
<rect x="73" y="24" width="1" height="1" fill="#FF0000" />
<rect x="5" y="25" width="1" height="1" fill="#FF0000" />
<rect x="6" y="25" width="1" height="1" fill="#FF0000" />
<rect x="9" y="25" width="1" height="1" fill="#FF0000" />
<rect x="10" y="25" width="1" height="1" fill="#FF0000" />
<rect x="11" y="25" width="1" height="1" fill="#8000FF" />
<rect x="12" y="25" width="1" height="1" fill="#8000FF" />
<rect x="13" y="25" width="1" height="1" fill="#8000FF" />
<rect x="14" y="25" width="1" height="1" fill="#FFFF00" />
<rect x="15" y="25" width="1" height="1" fill="#FFFF00" />
<rect x="16" y="25" width="1" height="1" fill="#FFFF00" />
<rect x="17" y="25" width="1" height="1" fill="#FFFF00" />
<rect x="18" y="25" width="1" height="1" fill="#FFFF00" />
<rect x="19" y="25" width="1" height="1" fill="#FFFF00" />
<rect x="20" y="25" width="1" height="1" fill="#8000FF" />
<rect x="21" y="25" width="1" height="1" fill="#8000FF" />
<rect x="22" y="25" width="1" height="1" fill="#FF0000" />
<rect x="25" y="25" width="1" height="1" fill="#FF0000" />
<rect x="26" y="25" width="1" height="1" fill="#FF0000" />
<rect x="53" y="25" width="1" height="1" fill="#FF0000" />
<rect x="54" y="25" width="1" height="1" fill="#FF0000" />
<rect x="57" y="25" width="1" height="1" fill="#FF0000" />
<rect x="58" y="25" width="1" height="1" fill="#FF0000" />
<rect x="69" y="25" width="1" height="1" fill="#FF0000" />
<rect x="70" y="25" width="1" height="1" fill="#FF0000" />
<rect x="73" y="25" width="1" height="1" fill="#FF0000" />
<rect x="74" y="25" width="1" height="1" fill="#FF0000" />
<rect x="4" y="26" width="1" height="1" fill="#FF0000" />
<rect x="5" y="26" width="1" height="1" fill="#FF0000" />
<rect x="6" y="26" width="1" height="1" fill="#FF0000" />
<rect x="9" y="26" width="1" height="1" fill="#FF0000" />
<rect x="10" y="26" width="1" height="1" fill="#FF0000" />
<rect x="11" y="26" width="1" height="1" fill="#FF0000" />
<rect x="12" y="26" width="1" height="1" fill="#8000FF" />
<rect x="13" y="26" width="1" height="1" fill="#8000FF" />
<rect x="14" y="26" width="1" height="1" fill="#8000FF" />
<rect x="15" y="26" width="1" height="1" fill="#8000FF" />
<rect x="16" y="26" width="1" height="1" fill="#8000FF" />
<rect x="17" y="26" width="1" height="1" fill="#8000FF" />
<rect x="18" y="26" width="1" height="1" fill="#8000FF" />
<rect x="19" y="26" width="1" height="1" fill="#8000FF" />
<rect x="20" y="26" width="1" height="1" fill="#8000FF" />
<rect x="21" y="26" width="1" height="1" fill="#FF0000" />
<rect x="22" y="26" width="1" height="1" fill="#FF0000" />
<rect x="25" y="26" width="1" height="1" fill="#FF0000" />
<rect x="26" y="26" width="1" height="1" fill="#FF0000" />
<rect x="27" y="26" width="1" height="1" fill="#FF0000" />
<rect x="52" y="26" width="1" height="1" fill="#FF0000" />
<rect x="53" y="26" width="1" height="1" fill="#FF0000" />
<rect x="54" y="26" width="1" height="1" fill="#FF0000" />
<rect x="57" y="26" width="1" height="1" fill="#FF0000" />
<rect x="58" y="26" width="1" height="1" fill="#FF0000" />
<rect x="59" y="26" width="1" height="1" fill="#FF0000" />
<rect x="68" y="26" width="1" height="1" fill="#FF0000" />
<rect x="69" y="26" width="1" height="1" fill="#FF0000" />
<rect x="70" y="26" width="1" height="1" fill="#FF0000" />
<rect x="73" y="26" width="1" height="1" fill="#FF0000" />
<rect x="74" y="26" width="1" height="1" fill="#FF0000" />
<rect x="75" y="26" width="1" height="1" fill="#FF0000" />
<rect x="4" y="27" width="1" height="1" fill="#FF0000" />
<rect x="5" y="27" width="1" height="1" fill="#FF0000" />
<rect x="10" y="27" width="1" height="1" fill="#FF0000" />
<rect x="11" y="27" width="1" height="1" fill="#FF0000" />
<rect x="14" y="27" width="1" height="1" fill="#8000FF" />
<rect x="15" y="27" width="1" height="1" fill="#8000FF" />
<rect x="16" y="27" width="1" height="1" fill="#8000FF" />
<rect x="17" y="27" width="1" height="1" fill="#8000FF" />
<rect x="18" y="27" width="1" height="1" fill="#8000FF" />
<rect x="20" y="27" width="1" height="1" fill="#FF0000" />
<rect x="21" y="27" width="1" height="1" fill="#FF0000" />
<rect x="26" y="27" width="1" height="1" fill="#FF0000" />
<rect x="27" y="27" width="1" height="1" fill="#FF0000" />
<rect x="52" y="27" width="1" height="1" fill="#FF0000" />
<rect x="53" y="27" width="1" height="1" fill="#FF0000" />
<rect x="58" y="27" width="1" height="1" fill="#FF0000" />
<rect x="59" y="27" width="1" height="1" fill="#FF0000" />
<rect x="68" y="27" width="1" height="1" fill="#FF0000" />
<rect x="69" y="27" width="1" height="1" fill="#FF0000" />
<rect x="74" y="27" width="1" height="1" fill="#FF0000" />
<rect x="75" y="27" width="1" height="1" fill="#FF0000" />
<rect x="2" y="28" width="1" height="1" fill="#FF0000" />
<rect x="3" y="28" width="1" height="1" fill="#FF0000" />
<rect x="4" y="28" width="1" height="1" fill="#FF0000" />
<rect x="11" y="28" width="1" height="1" fill="#FF0000" />
<rect x="12" y="28" width="1" height="1" fill="#FF0000" />
<rect x="13" y="28" width="1" height="1" fill="#FF0000" />
<rect x="18" y="28" width="1" height="1" fill="#FF0000" />
<rect x="19" y="28" width="1" height="1" fill="#FF0000" />
<rect x="20" y="28" width="1" height="1" fill="#FF0000" />
<rect x="27" y="28" width="1" height="1" fill="#FF0000" />
<rect x="28" y="28" width="1" height="1" fill="#FF0000" />
<rect x="29" y="28" width="1" height="1" fill="#FF0000" />
<rect x="50" y="28" width="1" height="1" fill="#FF0000" />
<rect x="51" y="28" width="1" height="1" fill="#FF0000" />
<rect x="52" y="28" width="1" height="1" fill="#FF0000" />
<rect x="59" y="28" width="1" height="1" fill="#FF0000" />
<rect x="60" y="28" width="1" height="1" fill="#FF0000" />
<rect x="61" y="28" width="1" height="1" fill="#FF0000" />
<rect x="66" y="28" width="1" height="1" fill="#FF0000" />
<rect x="67" y="28" width="1" height="1" fill="#FF0000" />
<rect x="68" y="28" width="1" height="1" fill="#FF0000" />
<rect x="75" y="28" width="1" height="1" fill="#FF0000" />
<rect x="76" y="28" width="1" height="1" fill="#FF0000" />
<rect x="77" y="28" width="1" height="1" fill="#FF0000" />
<rect x="2" y="29" width="1" height="1" fill="#FF0000" />
<rect x="3" y="29" width="1" height="1" fill="#FF0000" />
<rect x="4" y="29" width="1" height="1" fill="#FF0000" />
<rect x="11" y="29" width="1" height="1" fill="#FF0000" />
<rect x="12" y="29" width="1" height="1" fill="#FF0000" />
<rect x="13" y="29" width="1" height="1" fill="#FF0000" />
<rect x="18" y="29" width="1" height="1" fill="#FF0000" />
<rect x="19" y="29" width="1" height="1" fill="#FF0000" />
<rect x="20" y="29" width="1" height="1" fill="#FF0000" />
<rect x="27" y="29" width="1" height="1" fill="#FF0000" />
<rect x="28" y="29" width="1" height="1" fill="#FF0000" />
<rect x="29" y="29" width="1" height="1" fill="#FF0000" />
<rect x="50" y="29" width="1" height="1" fill="#FF0000" />
<rect x="51" y="29" width="1" height="1" fill="#FF0000" />
<rect x="52" y="29" width="1" height="1" fill="#FF0000" />
<rect x="59" y="29" width="1" height="1" fill="#FF0000" />
<rect x="60" y="29" width="1" height="1" fill="#FF0000" />
<rect x="61" y="29" width="1" height="1" fill="#FF0000" />
<rect x="66" y="29" width="1" height="1" fill="#FF0000" />
<rect x="67" y="29" width="1" height="1" fill="#FF0000" />
<rect x="68" y="29" width="1" height="1" fill="#FF0000" />
<rect x="75" y="29" width="1" height="1" fill="#FF0000" />
<rect x="76" y="29" width="1" height="1" fill="#FF0000" />
<rect x="77" y="29" width="1" height="1" fill="#FF0000" />
<rect x="2" y="30" width="1" height="1" fill="#FF0000" />
<rect x="3" y="30" width="1" height="1" fill="#FF0000" />
<rect x="4" y="30" width="1" height="1" fill="#FF0000" />
<rect x="11" y="30" width="1" height="1" fill="#FF0000" />
<rect x="12" y="30" width="1" height="1" fill="#FF0000" />
<rect x="13" y="30" width="1" height="1" fill="#FF0000" />
<rect x="18" y="30" width="1" height="1" fill="#FF0000" />
<rect x="19" y="30" width="1" height="1" fill="#FF0000" />
<rect x="20" y="30" width="1" height="1" fill="#FF0000" />
<rect x="27" y="30" width="1" height="1" fill="#FF0000" />
<rect x="28" y="30" width="1" height="1" fill="#FF0000" />
<rect x="29" y="30" width="1" height="1" fill="#FF0000" />
<rect x="50" y="30" width="1" height="1" fill="#FF0000" />
<rect x="51" y="30" width="1" height="1" fill="#FF0000" />
<rect x="52" y="30" width="1" height="1" fill="#FF0000" />
<rect x="59" y="30" width="1" height="1" fill="#FF0000" />
<rect x="60" y="30" width="1" height="1" fill="#FF0000" />
<rect x="61" y="30" width="1" height="1" fill="#FF0000" />
<rect x="66" y="30" width="1" height="1" fill="#FF0000" />
<rect x="67" y="30" width="1" height="1" fill="#FF0000" />
<rect x="68" y="30" width="1" height="1" fill="#FF0000" />
<rect x="75" y="30" width="1" height="1" fill="#FF0000" />
<rect x="76" y="30" width="1" height="1" fill="#FF0000" />
<rect x="77" y="30" width="1" height="1" fill="#FF0000" />
</svg>